<?xml version="1.0" encoding="utf-8"?>
<!-- Generator: Adobe Illustrator 21.0.2, SVG Export Plug-In . SVG Version: 6.00 Build 0)  -->
<svg version="1.1" id="Layer_1" xmlns="http://www.w3.org/2000/svg" xmlns:xlink="http://www.w3.org/1999/xlink" x="0px" y="0px"
	 viewBox="0 0 792 237.6" style="enable-background:new 0 0 792 237.6;" xml:space="preserve">
<style type="text/css">
	.st0{fill:#FFFFFF;}
</style>
<g>
	<path class="st0" d="M16.8,21.1H26v59C32.3,68.8,43,60,60.5,60c24.2,0,38.2,16.5,38.2,39.4v58.5h-9.2v-56.8
		c0-19.7-11.1-32.6-30.4-32.6C40.4,68.5,26,82.7,26,102.6v55.3h-9.2V21.1z"/>
	<path class="st0" d="M123.8,130.1v-0.4c0-19.9,17.1-31.1,41.8-31.1c13.3,0,22.5,1.7,31.7,4.1v-4.1c0-19.3-11.8-29.2-31.5-29.2
		c-11.6,0-21.2,3.2-30,7.7l-3.4-8.1c10.5-4.9,20.8-8.2,33.9-8.2c12.9,0,23.2,3.6,30.2,10.5c6.4,6.4,9.7,15.2,9.7,27v59.6h-9v-15.9
		c-6.6,9.2-18.4,18.2-36.5,18.2C142.9,160.1,123.8,150,123.8,130.1z M197.4,122.1v-10.9c-8.1-2.1-18.7-4.3-32.4-4.3
		c-20.2,0-31.5,9-31.5,22.3v0.4c0,13.9,13.1,21.9,27.7,21.9C180.8,151.5,197.4,139.5,197.4,122.1z"/>
	<path class="st0" d="M248.4,137.2v20.6h-9.2V21.1h9.2v62.6c8.2-12.6,20.4-23.6,39.4-23.6c23,0,46.5,18.6,46.5,49.7v0.4
		c0,31.1-23.4,50-46.5,50C268.7,160.1,256.3,149.2,248.4,137.2z M324.3,110.5v-0.4c0-25.1-17.4-41.2-37.5-41.2
		c-19.9,0-39,16.7-39,41v0.4c0,24.5,19.1,41,39,41C307.7,151.3,324.3,136.1,324.3,110.5z"/>
	<path class="st0" d="M363.1,24.8h11.4v12.6h-11.4V24.8z M364.3,62.3h9.2v95.6h-9.2V62.3z"/>
	<path class="st0" d="M414.7,133.3V70.7h-13.9v-8.4h13.9V31.7h9.2v30.5h33.5v8.4h-33.5v61.7c0,13.7,8.1,18.6,19.1,18.6
		c4.7,0,8.6-0.9,14.1-3.4v8.6c-4.9,2.2-9.6,3.4-15.6,3.4C426.7,159.5,414.7,151.5,414.7,133.3z"/>
	<path class="st0" d="M484.6,62.3h9.2v27.2c7.5-17,23.4-29.4,42.4-28.7v10.1h-0.9c-22.1,0-41.4,16.7-41.4,47.8v39.2h-9.2V62.3z"/>
	<path class="st0" d="M547,130.1v-0.4c0-19.9,17.1-31.1,41.8-31.1c13.3,0,22.5,1.7,31.7,4.1v-4.1c0-19.3-11.8-29.2-31.5-29.2
		c-11.6,0-21.2,3.2-30,7.7l-3.4-8.1c10.5-4.9,20.8-8.2,33.9-8.2c12.9,0,23.2,3.6,30.2,10.5c6.4,6.4,9.7,15.2,9.7,27v59.6h-9v-15.9
		c-6.6,9.2-18.4,18.2-36.5,18.2C566.1,160.1,547,150,547,130.1z M620.6,122.1v-10.9c-8.1-2.1-18.7-4.3-32.4-4.3
		c-20.2,0-31.5,9-31.5,22.3v0.4c0,13.9,13.1,21.9,27.7,21.9C604,151.5,620.6,139.5,620.6,122.1z"/>
	<path class="st0" d="M692.6,109.1L655,62.3h11.4l32.2,40.5l65.8-84.1h11.1L704.2,109l39.2,48.9H732l-33.7-42.5l-83,104.4h-11.1
		L692.6,109.1z"/>
</g>
</svg>
